<mxfile host="Electron" agent="Mozilla/5.0 (Windows NT 10.0; Win64; x64) AppleWebKit/537.36 (KHTML, like Gecko) draw.io/24.7.17 Chrome/128.0.6613.36 Electron/32.0.1 Safari/537.36" version="24.7.17">
  <diagram name="PÃ¡gina-1" id="nYfyMHs2D9rC0miNKQ9X">
    <mxGraphModel dx="2074" dy="1204" grid="1" gridSize="10" guides="1" tooltips="1" connect="1" arrows="1" fold="1" page="1" pageScale="1" pageWidth="1169" pageHeight="827" math="0" shadow="0">
      <root>
        <mxCell id="0" />
        <mxCell id="1" parent="0" />
        <mxCell id="p3bHe5o3-1bd0Q0DaY_P-1" value="S" style="swimlane;startSize=0;" parent="1" vertex="1">
          <mxGeometry x="270" y="150" width="810" height="450" as="geometry" />
        </mxCell>
        <mxCell id="p3bHe5o3-1bd0Q0DaY_P-15" style="edgeStyle=orthogonalEdgeStyle;rounded=0;orthogonalLoop=1;jettySize=auto;html=1;" parent="p3bHe5o3-1bd0Q0DaY_P-1" source="p3bHe5o3-1bd0Q0DaY_P-4" target="p3bHe5o3-1bd0Q0DaY_P-7" edge="1">
          <mxGeometry relative="1" as="geometry" />
        </mxCell>
        <mxCell id="p3bHe5o3-1bd0Q0DaY_P-4" value="ACCOUNTSERVICE" style="sketch=0;outlineConnect=0;fontColor=#232F3E;gradientColor=none;fillColor=#ED7100;strokeColor=none;dashed=0;verticalLabelPosition=bottom;verticalAlign=top;align=center;html=1;fontSize=12;fontStyle=0;aspect=fixed;pointerEvents=1;shape=mxgraph.aws4.ec2_aws_microservice_extractor_for_net;" parent="p3bHe5o3-1bd0Q0DaY_P-1" vertex="1">
          <mxGeometry x="220" y="90" width="48" height="48" as="geometry" />
        </mxCell>
        <mxCell id="p3bHe5o3-1bd0Q0DaY_P-16" style="edgeStyle=orthogonalEdgeStyle;rounded=0;orthogonalLoop=1;jettySize=auto;html=1;" parent="p3bHe5o3-1bd0Q0DaY_P-1" source="p3bHe5o3-1bd0Q0DaY_P-5" target="p3bHe5o3-1bd0Q0DaY_P-7" edge="1">
          <mxGeometry relative="1" as="geometry" />
        </mxCell>
        <mxCell id="p3bHe5o3-1bd0Q0DaY_P-17" style="edgeStyle=orthogonalEdgeStyle;rounded=0;orthogonalLoop=1;jettySize=auto;html=1;" parent="p3bHe5o3-1bd0Q0DaY_P-1" source="p3bHe5o3-1bd0Q0DaY_P-5" target="p3bHe5o3-1bd0Q0DaY_P-4" edge="1">
          <mxGeometry relative="1" as="geometry" />
        </mxCell>
        <mxCell id="p3bHe5o3-1bd0Q0DaY_P-5" value="CUSTOMERSERVICE" style="sketch=0;outlineConnect=0;fontColor=#232F3E;gradientColor=none;fillColor=#ED7100;strokeColor=none;dashed=0;verticalLabelPosition=bottom;verticalAlign=top;align=center;html=1;fontSize=12;fontStyle=0;aspect=fixed;pointerEvents=1;shape=mxgraph.aws4.ec2_aws_microservice_extractor_for_net;" parent="p3bHe5o3-1bd0Q0DaY_P-1" vertex="1">
          <mxGeometry x="220" y="216" width="48" height="48" as="geometry" />
        </mxCell>
        <mxCell id="p3bHe5o3-1bd0Q0DaY_P-6" value="CREDITSERVER" style="sketch=0;outlineConnect=0;fontColor=#232F3E;gradientColor=none;fillColor=#ED7100;strokeColor=none;dashed=0;verticalLabelPosition=bottom;verticalAlign=top;align=center;html=1;fontSize=12;fontStyle=0;aspect=fixed;pointerEvents=1;shape=mxgraph.aws4.ec2_aws_microservice_extractor_for_net;" parent="p3bHe5o3-1bd0Q0DaY_P-1" vertex="1">
          <mxGeometry x="510" y="99.6" width="48" height="48" as="geometry" />
        </mxCell>
        <mxCell id="p3bHe5o3-1bd0Q0DaY_P-7" value="TRANSACTIONSERVICE" style="sketch=0;outlineConnect=0;fontColor=#232F3E;gradientColor=none;fillColor=#ED7100;strokeColor=none;dashed=0;verticalLabelPosition=bottom;verticalAlign=top;align=center;html=1;fontSize=12;fontStyle=0;aspect=fixed;pointerEvents=1;shape=mxgraph.aws4.ec2_aws_microservice_extractor_for_net;" parent="p3bHe5o3-1bd0Q0DaY_P-1" vertex="1">
          <mxGeometry x="510" y="230" width="48" height="48" as="geometry" />
        </mxCell>
        <mxCell id="p3bHe5o3-1bd0Q0DaY_P-9" value="Log" style="html=1;whiteSpace=wrap;strokeColor=none;fillColor=#0079D6;labelPosition=center;verticalLabelPosition=middle;verticalAlign=top;align=center;fontSize=12;outlineConnect=0;spacingTop=-6;fontColor=#FFFFFF;sketch=0;shape=mxgraph.sitemap.log;" parent="p3bHe5o3-1bd0Q0DaY_P-1" vertex="1">
          <mxGeometry x="210" y="330" width="220" height="50" as="geometry" />
        </mxCell>
        <mxCell id="p3bHe5o3-1bd0Q0DaY_P-23" style="edgeStyle=orthogonalEdgeStyle;rounded=0;orthogonalLoop=1;jettySize=auto;html=1;" parent="p3bHe5o3-1bd0Q0DaY_P-1" source="p3bHe5o3-1bd0Q0DaY_P-10" edge="1">
          <mxGeometry relative="1" as="geometry">
            <mxPoint x="200" y="180" as="targetPoint" />
          </mxGeometry>
        </mxCell>
        <mxCell id="x5yeautjOvMu38n8IGU6-2" value="" style="edgeStyle=orthogonalEdgeStyle;rounded=0;orthogonalLoop=1;jettySize=auto;html=1;" parent="p3bHe5o3-1bd0Q0DaY_P-1" source="p3bHe5o3-1bd0Q0DaY_P-10" target="x5yeautjOvMu38n8IGU6-1" edge="1">
          <mxGeometry relative="1" as="geometry" />
        </mxCell>
        <mxCell id="p3bHe5o3-1bd0Q0DaY_P-10" value="Gateway&lt;div&gt;AuthServer&lt;/div&gt;&lt;div&gt;RedisClient&lt;br&gt;Kafka&amp;nbsp;&lt;/div&gt;" style="sketch=0;outlineConnect=0;fontColor=#232F3E;gradientColor=none;fillColor=#ED7100;strokeColor=none;dashed=0;verticalLabelPosition=bottom;verticalAlign=top;align=center;html=1;fontSize=12;fontStyle=0;aspect=fixed;pointerEvents=1;shape=mxgraph.aws4.ec2_aws_microservice_extractor_for_net;" parent="p3bHe5o3-1bd0Q0DaY_P-1" vertex="1">
          <mxGeometry x="70" y="120" width="48" height="48" as="geometry" />
        </mxCell>
        <mxCell id="p3bHe5o3-1bd0Q0DaY_P-11" style="edgeStyle=orthogonalEdgeStyle;rounded=0;orthogonalLoop=1;jettySize=auto;html=1;entryX=0;entryY=0.5;entryDx=0;entryDy=0;entryPerimeter=0;" parent="p3bHe5o3-1bd0Q0DaY_P-1" source="p3bHe5o3-1bd0Q0DaY_P-4" target="p3bHe5o3-1bd0Q0DaY_P-9" edge="1">
          <mxGeometry relative="1" as="geometry">
            <Array as="points">
              <mxPoint x="200" y="114" />
              <mxPoint x="200" y="355" />
            </Array>
          </mxGeometry>
        </mxCell>
        <mxCell id="p3bHe5o3-1bd0Q0DaY_P-12" style="edgeStyle=orthogonalEdgeStyle;rounded=0;orthogonalLoop=1;jettySize=auto;html=1;entryX=0.005;entryY=0.005;entryDx=0;entryDy=0;entryPerimeter=0;" parent="p3bHe5o3-1bd0Q0DaY_P-1" source="p3bHe5o3-1bd0Q0DaY_P-5" target="p3bHe5o3-1bd0Q0DaY_P-9" edge="1">
          <mxGeometry relative="1" as="geometry" />
        </mxCell>
        <mxCell id="p3bHe5o3-1bd0Q0DaY_P-13" style="edgeStyle=orthogonalEdgeStyle;rounded=0;orthogonalLoop=1;jettySize=auto;html=1;entryX=0.995;entryY=0.005;entryDx=0;entryDy=0;entryPerimeter=0;" parent="p3bHe5o3-1bd0Q0DaY_P-1" source="p3bHe5o3-1bd0Q0DaY_P-7" target="p3bHe5o3-1bd0Q0DaY_P-9" edge="1">
          <mxGeometry relative="1" as="geometry">
            <Array as="points">
              <mxPoint x="540" y="330" />
            </Array>
          </mxGeometry>
        </mxCell>
        <mxCell id="p3bHe5o3-1bd0Q0DaY_P-14" style="edgeStyle=orthogonalEdgeStyle;rounded=0;orthogonalLoop=1;jettySize=auto;html=1;entryX=1;entryY=0.5;entryDx=0;entryDy=0;entryPerimeter=0;" parent="p3bHe5o3-1bd0Q0DaY_P-1" source="p3bHe5o3-1bd0Q0DaY_P-6" target="p3bHe5o3-1bd0Q0DaY_P-9" edge="1">
          <mxGeometry relative="1" as="geometry">
            <Array as="points">
              <mxPoint x="630" y="114" />
              <mxPoint x="630" y="355" />
            </Array>
          </mxGeometry>
        </mxCell>
        <mxCell id="XuSWelnsq-YTAtwF_0Lg-1" value="MONGODB" style="dashed=0;outlineConnect=0;html=1;align=center;labelPosition=center;verticalLabelPosition=bottom;verticalAlign=top;shape=mxgraph.webicons.mongodb;gradientColor=#DFDEDE" parent="p3bHe5o3-1bd0Q0DaY_P-1" vertex="1">
          <mxGeometry x="670" y="147.6" width="102.4" height="102.4" as="geometry" />
        </mxCell>
        <mxCell id="x5yeautjOvMu38n8IGU6-5" style="edgeStyle=orthogonalEdgeStyle;rounded=0;orthogonalLoop=1;jettySize=auto;html=1;" parent="p3bHe5o3-1bd0Q0DaY_P-1" source="x5yeautjOvMu38n8IGU6-1" edge="1">
          <mxGeometry relative="1" as="geometry">
            <mxPoint x="200" y="180" as="targetPoint" />
            <Array as="points">
              <mxPoint x="201" y="260" />
            </Array>
          </mxGeometry>
        </mxCell>
        <mxCell id="x5yeautjOvMu38n8IGU6-1" value="ApiRegistry" style="sketch=0;outlineConnect=0;fontColor=#232F3E;gradientColor=none;fillColor=#ED7100;strokeColor=none;dashed=0;verticalLabelPosition=bottom;verticalAlign=top;align=center;html=1;fontSize=12;fontStyle=0;aspect=fixed;pointerEvents=1;shape=mxgraph.aws4.ec2_aws_microservice_extractor_for_net;" parent="p3bHe5o3-1bd0Q0DaY_P-1" vertex="1">
          <mxGeometry x="70" y="250" width="48" height="48" as="geometry" />
        </mxCell>
        <mxCell id="Wk9jo4tQgAx1-QUOfoNP-4" style="edgeStyle=orthogonalEdgeStyle;rounded=0;orthogonalLoop=1;jettySize=auto;html=1;" edge="1" parent="p3bHe5o3-1bd0Q0DaY_P-1" source="Wk9jo4tQgAx1-QUOfoNP-2">
          <mxGeometry relative="1" as="geometry">
            <mxPoint x="405" y="110" as="targetPoint" />
          </mxGeometry>
        </mxCell>
        <mxCell id="Wk9jo4tQgAx1-QUOfoNP-5" style="edgeStyle=orthogonalEdgeStyle;rounded=0;orthogonalLoop=1;jettySize=auto;html=1;" edge="1" parent="p3bHe5o3-1bd0Q0DaY_P-1" source="Wk9jo4tQgAx1-QUOfoNP-2">
          <mxGeometry relative="1" as="geometry">
            <mxPoint x="540" y="190" as="targetPoint" />
          </mxGeometry>
        </mxCell>
        <mxCell id="Wk9jo4tQgAx1-QUOfoNP-6" style="edgeStyle=orthogonalEdgeStyle;rounded=0;orthogonalLoop=1;jettySize=auto;html=1;" edge="1" parent="p3bHe5o3-1bd0Q0DaY_P-1" source="Wk9jo4tQgAx1-QUOfoNP-2" target="p3bHe5o3-1bd0Q0DaY_P-5">
          <mxGeometry relative="1" as="geometry" />
        </mxCell>
        <mxCell id="Wk9jo4tQgAx1-QUOfoNP-7" style="edgeStyle=orthogonalEdgeStyle;rounded=0;orthogonalLoop=1;jettySize=auto;html=1;" edge="1" parent="p3bHe5o3-1bd0Q0DaY_P-1" source="Wk9jo4tQgAx1-QUOfoNP-2" target="p3bHe5o3-1bd0Q0DaY_P-7">
          <mxGeometry relative="1" as="geometry" />
        </mxCell>
        <mxCell id="Wk9jo4tQgAx1-QUOfoNP-2" value="" style="sketch=0;points=[[0,0,0],[0.25,0,0],[0.5,0,0],[0.75,0,0],[1,0,0],[0,1,0],[0.25,1,0],[0.5,1,0],[0.75,1,0],[1,1,0],[0,0.25,0],[0,0.5,0],[0,0.75,0],[1,0.25,0],[1,0.5,0],[1,0.75,0]];outlineConnect=0;fontColor=#232F3E;fillColor=#8C4FFF;strokeColor=#ffffff;dashed=0;verticalLabelPosition=bottom;verticalAlign=top;align=center;html=1;fontSize=12;fontStyle=0;aspect=fixed;shape=mxgraph.aws4.resourceIcon;resIcon=mxgraph.aws4.managed_streaming_for_kafka;" vertex="1" parent="p3bHe5o3-1bd0Q0DaY_P-1">
          <mxGeometry x="365" y="150" width="80" height="80" as="geometry" />
        </mxCell>
        <mxCell id="Wk9jo4tQgAx1-QUOfoNP-3" style="edgeStyle=orthogonalEdgeStyle;rounded=0;orthogonalLoop=1;jettySize=auto;html=1;entryX=0;entryY=0.5;entryDx=0;entryDy=0;entryPerimeter=0;" edge="1" parent="p3bHe5o3-1bd0Q0DaY_P-1" source="p3bHe5o3-1bd0Q0DaY_P-10" target="Wk9jo4tQgAx1-QUOfoNP-2">
          <mxGeometry relative="1" as="geometry">
            <Array as="points">
              <mxPoint x="94" y="190" />
            </Array>
          </mxGeometry>
        </mxCell>
        <mxCell id="p3bHe5o3-1bd0Q0DaY_P-3" value="CLIENTE&lt;br&gt;APP BANCARIA" style="shape=umlActor;verticalLabelPosition=bottom;verticalAlign=top;html=1;outlineConnect=0;" parent="1" vertex="1">
          <mxGeometry x="130" y="300" width="30" height="60" as="geometry" />
        </mxCell>
        <mxCell id="p3bHe5o3-1bd0Q0DaY_P-19" value="DIAGRAMA&amp;nbsp;&lt;div&gt;BASICO DEL SISTEMA&lt;/div&gt;" style="text;html=1;align=center;verticalAlign=middle;resizable=0;points=[];autosize=1;strokeColor=none;fillColor=none;" parent="1" vertex="1">
          <mxGeometry x="275" y="163" width="150" height="40" as="geometry" />
        </mxCell>
        <mxCell id="p3bHe5o3-1bd0Q0DaY_P-20" style="edgeStyle=orthogonalEdgeStyle;rounded=0;orthogonalLoop=1;jettySize=auto;html=1;exitX=0.5;exitY=0.5;exitDx=0;exitDy=0;exitPerimeter=0;" parent="1" source="p3bHe5o3-1bd0Q0DaY_P-3" target="p3bHe5o3-1bd0Q0DaY_P-10" edge="1">
          <mxGeometry relative="1" as="geometry" />
        </mxCell>
      </root>
    </mxGraphModel>
  </diagram>
</mxfile>
